<?xml version="1.0" encoding="UTF-8" standalone="no"?>
<!DOCTYPE svg PUBLIC "-//W3C//DTD SVG 1.1//EN"
 "http://www.w3.org/Graphics/SVG/1.1/DTD/svg11.dtd">
<!-- Generated by graphviz version 2.40.1 (20161225.0304)
 -->
<!-- Title: snakemake_dag Pages: 1 -->
<svg width="3111pt" height="622pt"
 viewBox="0.00 0.00 3111.25 622.00" xmlns="http://www.w3.org/2000/svg" xmlns:xlink="http://www.w3.org/1999/xlink">
<g id="graph0" class="graph" transform="scale(1 1) rotate(0) translate(4 618)">
<title>snakemake_dag</title>
<polygon fill="#ffffff" stroke="transparent" points="-4,4 -4,-618 3107.2461,-618 3107.2461,4 -4,4"/>
<!-- 0 -->
<g id="node1" class="node">
<title>0</title>
<path fill="none" stroke="#d85656" stroke-width="2" stroke-dasharray="5,2" d="M1610.0244,-36C1610.0244,-36 1580.0244,-36 1580.0244,-36 1574.0244,-36 1568.0244,-30 1568.0244,-24 1568.0244,-24 1568.0244,-12 1568.0244,-12 1568.0244,-6 1574.0244,0 1580.0244,0 1580.0244,0 1610.0244,0 1610.0244,0 1616.0244,0 1622.0244,-6 1622.0244,-12 1622.0244,-12 1622.0244,-24 1622.0244,-24 1622.0244,-30 1616.0244,-36 1610.0244,-36"/>
<text text-anchor="middle" x="1595.0244" y="-15" font-family="sans" font-size="10.00" fill="#000000">all</text>
</g>
<!-- 1 -->
<g id="node2" class="node">
<title>1</title>
<path fill="none" stroke="#56d882" stroke-width="2" stroke-dasharray="5,2" d="M3060.0733,-110C3060.0733,-110 2987.9756,-110 2987.9756,-110 2981.9756,-110 2975.9756,-104 2975.9756,-98 2975.9756,-98 2975.9756,-84 2975.9756,-84 2975.9756,-78 2981.9756,-72 2987.9756,-72 2987.9756,-72 3060.0733,-72 3060.0733,-72 3066.0733,-72 3072.0733,-78 3072.0733,-84 3072.0733,-84 3072.0733,-98 3072.0733,-98 3072.0733,-104 3066.0733,-110 3060.0733,-110"/>
<text text-anchor="middle" x="3024.0244" y="-98" font-family="sans" font-size="10.00" fill="#000000">jif_result_cleaning</text>
<text text-anchor="middle" x="3024.0244" y="-88" font-family="sans" font-size="10.00" fill="#000000">sample: he</text>
<text text-anchor="middle" x="3024.0244" y="-78" font-family="sans" font-size="10.00" fill="#000000">year: 2012</text>
</g>
<!-- 1&#45;&gt;0 -->
<g id="edge1" class="edge">
<title>1&#45;&gt;0</title>
<path fill="none" stroke="#c0c0c0" stroke-width="2" d="M2975.7582,-73.8802C2972.8243,-73.1615 2969.8977,-72.5245 2967.0244,-72 2832.6108,-47.4652 1838.4862,-23.5639 1632.3711,-18.8406"/>
<polygon fill="#c0c0c0" stroke="#c0c0c0" stroke-width="2" points="1632.1509,-15.3348 1622.0736,-18.6056 1631.9911,-22.3329 1632.1509,-15.3348"/>
</g>
<!-- 2 -->
<g id="node3" class="node">
<title>2</title>
<path fill="none" stroke="#56d882" stroke-width="2" stroke-dasharray="5,2" d="M84.0733,-110C84.0733,-110 11.9756,-110 11.9756,-110 5.9756,-110 -.0244,-104 -.0244,-98 -.0244,-98 -.0244,-84 -.0244,-84 -.0244,-78 5.9756,-72 11.9756,-72 11.9756,-72 84.0733,-72 84.0733,-72 90.0733,-72 96.0733,-78 96.0733,-84 96.0733,-84 96.0733,-98 96.0733,-98 96.0733,-104 90.0733,-110 84.0733,-110"/>
<text text-anchor="middle" x="48.0244" y="-98" font-family="sans" font-size="10.00" fill="#000000">jif_result_cleaning</text>
<text text-anchor="middle" x="48.0244" y="-88" font-family="sans" font-size="10.00" fill="#000000">sample: cm</text>
<text text-anchor="middle" x="48.0244" y="-78" font-family="sans" font-size="10.00" fill="#000000">year: 2016</text>
</g>
<!-- 2&#45;&gt;0 -->
<g id="edge2" class="edge">
<title>2&#45;&gt;0</title>
<path fill="none" stroke="#c0c0c0" stroke-width="2" d="M96.2887,-73.8695C99.2231,-73.1535 102.1504,-72.52 105.0244,-72 251.7155,-45.46 1340.8996,-22.9587 1557.5961,-18.7178"/>
<polygon fill="#c0c0c0" stroke="#c0c0c0" stroke-width="2" points="1557.8862,-22.2129 1567.8161,-18.5187 1557.7498,-15.2143 1557.8862,-22.2129"/>
</g>
<!-- 3 -->
<g id="node4" class="node">
<title>3</title>
<path fill="none" stroke="#56d882" stroke-width="2" stroke-dasharray="5,2" d="M198.0733,-110C198.0733,-110 125.9756,-110 125.9756,-110 119.9756,-110 113.9756,-104 113.9756,-98 113.9756,-98 113.9756,-84 113.9756,-84 113.9756,-78 119.9756,-72 125.9756,-72 125.9756,-72 198.0733,-72 198.0733,-72 204.0733,-72 210.0733,-78 210.0733,-84 210.0733,-84 210.0733,-98 210.0733,-98 210.0733,-104 204.0733,-110 198.0733,-110"/>
<text text-anchor="middle" x="162.0244" y="-98" font-family="sans" font-size="10.00" fill="#000000">jif_result_cleaning</text>
<text text-anchor="middle" x="162.0244" y="-88" font-family="sans" font-size="10.00" fill="#000000">sample: cm</text>
<text text-anchor="middle" x="162.0244" y="-78" font-family="sans" font-size="10.00" fill="#000000">year: 2012</text>
</g>
<!-- 3&#45;&gt;0 -->
<g id="edge3" class="edge">
<title>3&#45;&gt;0</title>
<path fill="none" stroke="#c0c0c0" stroke-width="2" d="M210.2906,-73.8798C213.2245,-73.1612 216.1511,-72.5243 219.0244,-72 353.8977,-47.3893 1351.8443,-23.5269 1557.8765,-18.8315"/>
<polygon fill="#c0c0c0" stroke="#c0c0c0" stroke-width="2" points="1557.9784,-22.3302 1567.8964,-18.6041 1557.8195,-15.332 1557.9784,-22.3302"/>
</g>
<!-- 4 -->
<g id="node5" class="node">
<title>4</title>
<path fill="none" stroke="#56d882" stroke-width="2" stroke-dasharray="5,2" d="M312.0733,-110C312.0733,-110 239.9756,-110 239.9756,-110 233.9756,-110 227.9756,-104 227.9756,-98 227.9756,-98 227.9756,-84 227.9756,-84 227.9756,-78 233.9756,-72 239.9756,-72 239.9756,-72 312.0733,-72 312.0733,-72 318.0733,-72 324.0733,-78 324.0733,-84 324.0733,-84 324.0733,-98 324.0733,-98 324.0733,-104 318.0733,-110 312.0733,-110"/>
<text text-anchor="middle" x="276.0244" y="-98" font-family="sans" font-size="10.00" fill="#000000">jif_result_cleaning</text>
<text text-anchor="middle" x="276.0244" y="-88" font-family="sans" font-size="10.00" fill="#000000">sample: cm</text>
<text text-anchor="middle" x="276.0244" y="-78" font-family="sans" font-size="10.00" fill="#000000">year: 2014</text>
</g>
<!-- 4&#45;&gt;0 -->
<g id="edge4" class="edge">
<title>4&#45;&gt;0</title>
<path fill="none" stroke="#c0c0c0" stroke-width="2" d="M324.2928,-73.8919C327.2262,-73.1702 330.1521,-72.5294 333.0244,-72 576.9886,-27.0369 1375.4074,-19.3712 1557.7238,-18.1967"/>
<polygon fill="#c0c0c0" stroke="#c0c0c0" stroke-width="2" points="1557.8983,-21.6958 1567.8765,-18.134 1557.855,-14.6959 1557.8983,-21.6958"/>
</g>
<!-- 5 -->
<g id="node6" class="node">
<title>5</title>
<path fill="none" stroke="#56d882" stroke-width="2" stroke-dasharray="5,2" d="M426.0733,-110C426.0733,-110 353.9756,-110 353.9756,-110 347.9756,-110 341.9756,-104 341.9756,-98 341.9756,-98 341.9756,-84 341.9756,-84 341.9756,-78 347.9756,-72 353.9756,-72 353.9756,-72 426.0733,-72 426.0733,-72 432.0733,-72 438.0733,-78 438.0733,-84 438.0733,-84 438.0733,-98 438.0733,-98 438.0733,-104 432.0733,-110 426.0733,-110"/>
<text text-anchor="middle" x="390.0244" y="-98" font-family="sans" font-size="10.00" fill="#000000">jif_result_cleaning</text>
<text text-anchor="middle" x="390.0244" y="-88" font-family="sans" font-size="10.00" fill="#000000">sample: he</text>
<text text-anchor="middle" x="390.0244" y="-78" font-family="sans" font-size="10.00" fill="#000000">year: 2008</text>
</g>
<!-- 5&#45;&gt;0 -->
<g id="edge5" class="edge">
<title>5&#45;&gt;0</title>
<path fill="none" stroke="#c0c0c0" stroke-width="2" d="M438.2955,-73.9064C441.2282,-73.1811 444.1532,-72.5355 447.0244,-72 667.484,-30.8853 1385.948,-20.339 1557.8344,-18.3788"/>
<polygon fill="#c0c0c0" stroke="#c0c0c0" stroke-width="2" points="1557.942,-21.8779 1567.9024,-18.2668 1557.8641,-14.8783 1557.942,-21.8779"/>
</g>
<!-- 6 -->
<g id="node7" class="node">
<title>6</title>
<path fill="none" stroke="#56d882" stroke-width="2" stroke-dasharray="5,2" d="M540.0733,-110C540.0733,-110 467.9756,-110 467.9756,-110 461.9756,-110 455.9756,-104 455.9756,-98 455.9756,-98 455.9756,-84 455.9756,-84 455.9756,-78 461.9756,-72 467.9756,-72 467.9756,-72 540.0733,-72 540.0733,-72 546.0733,-72 552.0733,-78 552.0733,-84 552.0733,-84 552.0733,-98 552.0733,-98 552.0733,-104 546.0733,-110 540.0733,-110"/>
<text text-anchor="middle" x="504.0244" y="-98" font-family="sans" font-size="10.00" fill="#000000">jif_result_cleaning</text>
<text text-anchor="middle" x="504.0244" y="-88" font-family="sans" font-size="10.00" fill="#000000">sample: br</text>
<text text-anchor="middle" x="504.0244" y="-78" font-family="sans" font-size="10.00" fill="#000000">year: 2014</text>
</g>
<!-- 6&#45;&gt;0 -->
<g id="edge6" class="edge">
<title>6&#45;&gt;0</title>
<path fill="none" stroke="#c0c0c0" stroke-width="2" d="M552.2988,-73.9241C555.2307,-73.1943 558.1546,-72.5429 561.0244,-72 757.8553,-34.7649 1395.7079,-21.4341 1557.4629,-18.608"/>
<polygon fill="#c0c0c0" stroke="#c0c0c0" stroke-width="2" points="1557.9093,-22.1009 1567.8477,-18.4297 1557.789,-15.102 1557.9093,-22.1009"/>
</g>
<!-- 7 -->
<g id="node8" class="node">
<title>7</title>
<path fill="none" stroke="#80d856" stroke-width="2" stroke-dasharray="5,2" d="M655.6818,-110C655.6818,-110 582.3671,-110 582.3671,-110 576.3671,-110 570.3671,-104 570.3671,-98 570.3671,-98 570.3671,-84 570.3671,-84 570.3671,-78 576.3671,-72 582.3671,-72 582.3671,-72 655.6818,-72 655.6818,-72 661.6818,-72 667.6818,-78 667.6818,-84 667.6818,-84 667.6818,-98 667.6818,-98 667.6818,-104 661.6818,-110 655.6818,-110"/>
<text text-anchor="middle" x="619.0244" y="-98" font-family="sans" font-size="10.00" fill="#000000">sr_result_cleaning</text>
<text text-anchor="middle" x="619.0244" y="-88" font-family="sans" font-size="10.00" fill="#000000">dv: sra</text>
<text text-anchor="middle" x="619.0244" y="-78" font-family="sans" font-size="10.00" fill="#000000">sample: he</text>
</g>
<!-- 7&#45;&gt;0 -->
<g id="edge7" class="edge">
<title>7&#45;&gt;0</title>
<path fill="none" stroke="#c0c0c0" stroke-width="2" d="M667.617,-73.8678C670.4425,-73.1641 673.2588,-72.5325 676.0244,-72 849.4028,-38.6161 1408.0661,-22.6333 1557.8052,-18.8823"/>
<polygon fill="#c0c0c0" stroke="#c0c0c0" stroke-width="2" points="1557.9585,-22.3797 1567.8688,-18.6333 1557.7852,-15.3818 1557.9585,-22.3797"/>
</g>
<!-- 8 -->
<g id="node9" class="node">
<title>8</title>
<path fill="none" stroke="#80d856" stroke-width="2" stroke-dasharray="5,2" d="M770.6818,-110C770.6818,-110 697.3671,-110 697.3671,-110 691.3671,-110 685.3671,-104 685.3671,-98 685.3671,-98 685.3671,-84 685.3671,-84 685.3671,-78 691.3671,-72 697.3671,-72 697.3671,-72 770.6818,-72 770.6818,-72 776.6818,-72 782.6818,-78 782.6818,-84 782.6818,-84 782.6818,-98 782.6818,-98 782.6818,-104 776.6818,-110 770.6818,-110"/>
<text text-anchor="middle" x="734.0244" y="-98" font-family="sans" font-size="10.00" fill="#000000">sr_result_cleaning</text>
<text text-anchor="middle" x="734.0244" y="-88" font-family="sans" font-size="10.00" fill="#000000">dv: srf</text>
<text text-anchor="middle" x="734.0244" y="-78" font-family="sans" font-size="10.00" fill="#000000">sample: all</text>
</g>
<!-- 8&#45;&gt;0 -->
<g id="edge8" class="edge">
<title>8&#45;&gt;0</title>
<path fill="none" stroke="#c0c0c0" stroke-width="2" d="M782.8449,-74.0583C785.9306,-73.2829 789.008,-72.5859 792.0244,-72 941.7441,-42.9174 1420.08,-24.1662 1557.6733,-19.2755"/>
<polygon fill="#c0c0c0" stroke="#c0c0c0" stroke-width="2" points="1557.8509,-22.7715 1567.7215,-18.9215 1557.6044,-15.7759 1557.8509,-22.7715"/>
</g>
<!-- 9 -->
<g id="node10" class="node">
<title>9</title>
<path fill="none" stroke="#56d882" stroke-width="2" stroke-dasharray="5,2" d="M885.0733,-110C885.0733,-110 812.9756,-110 812.9756,-110 806.9756,-110 800.9756,-104 800.9756,-98 800.9756,-98 800.9756,-84 800.9756,-84 800.9756,-78 806.9756,-72 812.9756,-72 812.9756,-72 885.0733,-72 885.0733,-72 891.0733,-72 897.0733,-78 897.0733,-84 897.0733,-84 897.0733,-98 897.0733,-98 897.0733,-104 891.0733,-110 885.0733,-110"/>
<text text-anchor="middle" x="849.0244" y="-98" font-family="sans" font-size="10.00" fill="#000000">jif_result_cleaning</text>
<text text-anchor="middle" x="849.0244" y="-88" font-family="sans" font-size="10.00" fill="#000000">sample: all</text>
<text text-anchor="middle" x="849.0244" y="-78" font-family="sans" font-size="10.00" fill="#000000">year: 2010</text>
</g>
<!-- 9&#45;&gt;0 -->
<g id="edge9" class="edge">
<title>9&#45;&gt;0</title>
<path fill="none" stroke="#c0c0c0" stroke-width="2" d="M897.3162,-74.0128C900.2437,-73.2608 903.1619,-72.5802 906.0244,-72 1032.571,-46.35 1433.3389,-25.6608 1557.7889,-19.7211"/>
<polygon fill="#c0c0c0" stroke="#c0c0c0" stroke-width="2" points="1558.1296,-23.209 1567.9527,-19.2396 1557.7982,-16.2168 1558.1296,-23.209"/>
</g>
<!-- 10 -->
<g id="node11" class="node">
<title>10</title>
<path fill="none" stroke="#80d856" stroke-width="2" stroke-dasharray="5,2" d="M1000.6818,-110C1000.6818,-110 927.3671,-110 927.3671,-110 921.3671,-110 915.3671,-104 915.3671,-98 915.3671,-98 915.3671,-84 915.3671,-84 915.3671,-78 921.3671,-72 927.3671,-72 927.3671,-72 1000.6818,-72 1000.6818,-72 1006.6818,-72 1012.6818,-78 1012.6818,-84 1012.6818,-84 1012.6818,-98 1012.6818,-98 1012.6818,-104 1006.6818,-110 1000.6818,-110"/>
<text text-anchor="middle" x="964.0244" y="-98" font-family="sans" font-size="10.00" fill="#000000">sr_result_cleaning</text>
<text text-anchor="middle" x="964.0244" y="-88" font-family="sans" font-size="10.00" fill="#000000">dv: sra</text>
<text text-anchor="middle" x="964.0244" y="-78" font-family="sans" font-size="10.00" fill="#000000">sample: all</text>
</g>
<!-- 10&#45;&gt;0 -->
<g id="edge10" class="edge">
<title>10&#45;&gt;0</title>
<path fill="none" stroke="#c0c0c0" stroke-width="2" d="M1012.8641,-74.1536C1015.945,-73.3546 1019.0161,-72.6263 1022.0244,-72 1221.0388,-30.5655 1465.62,-20.8834 1557.6544,-18.6543"/>
<polygon fill="#c0c0c0" stroke="#c0c0c0" stroke-width="2" points="1557.9386,-22.1489 1567.8567,-18.4231 1557.7799,-15.1506 1557.9386,-22.1489"/>
</g>
<!-- 11 -->
<g id="node12" class="node">
<title>11</title>
<path fill="none" stroke="#56d882" stroke-width="2" stroke-dasharray="5,2" d="M1115.0733,-110C1115.0733,-110 1042.9756,-110 1042.9756,-110 1036.9756,-110 1030.9756,-104 1030.9756,-98 1030.9756,-98 1030.9756,-84 1030.9756,-84 1030.9756,-78 1036.9756,-72 1042.9756,-72 1042.9756,-72 1115.0733,-72 1115.0733,-72 1121.0733,-72 1127.0733,-78 1127.0733,-84 1127.0733,-84 1127.0733,-98 1127.0733,-98 1127.0733,-104 1121.0733,-110 1115.0733,-110"/>
<text text-anchor="middle" x="1079.0244" y="-98" font-family="sans" font-size="10.00" fill="#000000">jif_result_cleaning</text>
<text text-anchor="middle" x="1079.0244" y="-88" font-family="sans" font-size="10.00" fill="#000000">sample: all</text>
<text text-anchor="middle" x="1079.0244" y="-78" font-family="sans" font-size="10.00" fill="#000000">year: 2016</text>
</g>
<!-- 11&#45;&gt;0 -->
<g id="edge11" class="edge">
<title>11&#45;&gt;0</title>
<path fill="none" stroke="#c0c0c0" stroke-width="2" d="M1127.3443,-74.145C1130.2648,-73.3597 1133.1737,-72.6358 1136.0244,-72 1290.1024,-37.6374 1478.4601,-24.1976 1557.4002,-19.8169"/>
<polygon fill="#c0c0c0" stroke="#c0c0c0" stroke-width="2" points="1558.0003,-23.2898 1567.7979,-19.2577 1557.6243,-16.2999 1558.0003,-23.2898"/>
</g>
<!-- 12 -->
<g id="node13" class="node">
<title>12</title>
<path fill="none" stroke="#56d882" stroke-width="2" stroke-dasharray="5,2" d="M1229.0733,-110C1229.0733,-110 1156.9756,-110 1156.9756,-110 1150.9756,-110 1144.9756,-104 1144.9756,-98 1144.9756,-98 1144.9756,-84 1144.9756,-84 1144.9756,-78 1150.9756,-72 1156.9756,-72 1156.9756,-72 1229.0733,-72 1229.0733,-72 1235.0733,-72 1241.0733,-78 1241.0733,-84 1241.0733,-84 1241.0733,-98 1241.0733,-98 1241.0733,-104 1235.0733,-110 1229.0733,-110"/>
<text text-anchor="middle" x="1193.0244" y="-98" font-family="sans" font-size="10.00" fill="#000000">jif_result_cleaning</text>
<text text-anchor="middle" x="1193.0244" y="-88" font-family="sans" font-size="10.00" fill="#000000">sample: cm</text>
<text text-anchor="middle" x="1193.0244" y="-78" font-family="sans" font-size="10.00" fill="#000000">year: 2008</text>
</g>
<!-- 12&#45;&gt;0 -->
<g id="edge12" class="edge">
<title>12&#45;&gt;0</title>
<path fill="none" stroke="#c0c0c0" stroke-width="2" d="M1241.0623,-74.362C1244.0801,-73.5112 1247.085,-72.7147 1250.0244,-72 1360.5131,-45.1364 1494.2907,-28.6501 1557.9241,-21.755"/>
<polygon fill="#c0c0c0" stroke="#c0c0c0" stroke-width="2" points="1558.311,-25.2337 1567.8832,-20.6925 1557.5683,-18.2732 1558.311,-25.2337"/>
</g>
<!-- 13 -->
<g id="node14" class="node">
<title>13</title>
<path fill="none" stroke="#80d856" stroke-width="2" stroke-dasharray="5,2" d="M1344.6818,-110C1344.6818,-110 1271.3671,-110 1271.3671,-110 1265.3671,-110 1259.3671,-104 1259.3671,-98 1259.3671,-98 1259.3671,-84 1259.3671,-84 1259.3671,-78 1265.3671,-72 1271.3671,-72 1271.3671,-72 1344.6818,-72 1344.6818,-72 1350.6818,-72 1356.6818,-78 1356.6818,-84 1356.6818,-84 1356.6818,-98 1356.6818,-98 1356.6818,-104 1350.6818,-110 1344.6818,-110"/>
<text text-anchor="middle" x="1308.0244" y="-98" font-family="sans" font-size="10.00" fill="#000000">sr_result_cleaning</text>
<text text-anchor="middle" x="1308.0244" y="-88" font-family="sans" font-size="10.00" fill="#000000">dv: sra</text>
<text text-anchor="middle" x="1308.0244" y="-78" font-family="sans" font-size="10.00" fill="#000000">sample: cm</text>
</g>
<!-- 13&#45;&gt;0 -->
<g id="edge13" class="edge">
<title>13&#45;&gt;0</title>
<path fill="none" stroke="#c0c0c0" stroke-width="2" d="M1356.6667,-74.7332C1359.8248,-73.78 1362.9643,-72.8604 1366.0244,-72 1432.9672,-53.1791 1512.1451,-35.51 1557.682,-25.7837"/>
<polygon fill="#c0c0c0" stroke="#c0c0c0" stroke-width="2" points="1558.6344,-29.1596 1567.6892,-23.6587 1557.1803,-22.3123 1558.6344,-29.1596"/>
</g>
<!-- 14 -->
<g id="node15" class="node">
<title>14</title>
<path fill="none" stroke="#56d882" stroke-width="2" stroke-dasharray="5,2" d="M1459.0733,-110C1459.0733,-110 1386.9756,-110 1386.9756,-110 1380.9756,-110 1374.9756,-104 1374.9756,-98 1374.9756,-98 1374.9756,-84 1374.9756,-84 1374.9756,-78 1380.9756,-72 1386.9756,-72 1386.9756,-72 1459.0733,-72 1459.0733,-72 1465.0733,-72 1471.0733,-78 1471.0733,-84 1471.0733,-84 1471.0733,-98 1471.0733,-98 1471.0733,-104 1465.0733,-110 1459.0733,-110"/>
<text text-anchor="middle" x="1423.0244" y="-98" font-family="sans" font-size="10.00" fill="#000000">jif_result_cleaning</text>
<text text-anchor="middle" x="1423.0244" y="-88" font-family="sans" font-size="10.00" fill="#000000">sample: br</text>
<text text-anchor="middle" x="1423.0244" y="-78" font-family="sans" font-size="10.00" fill="#000000">year: 2008</text>
</g>
<!-- 14&#45;&gt;0 -->
<g id="edge14" class="edge">
<title>14&#45;&gt;0</title>
<path fill="none" stroke="#c0c0c0" stroke-width="2" d="M1468.2154,-71.8201C1496.4049,-59.856 1532.2097,-44.6597 1558.5792,-33.468"/>
<polygon fill="#c0c0c0" stroke="#c0c0c0" stroke-width="2" points="1559.998,-36.6681 1567.8358,-29.5394 1557.2631,-30.2245 1559.998,-36.6681"/>
</g>
<!-- 15 -->
<g id="node16" class="node">
<title>15</title>
<path fill="none" stroke="#80d856" stroke-width="2" stroke-dasharray="5,2" d="M1574.6818,-110C1574.6818,-110 1501.3671,-110 1501.3671,-110 1495.3671,-110 1489.3671,-104 1489.3671,-98 1489.3671,-98 1489.3671,-84 1489.3671,-84 1489.3671,-78 1495.3671,-72 1501.3671,-72 1501.3671,-72 1574.6818,-72 1574.6818,-72 1580.6818,-72 1586.6818,-78 1586.6818,-84 1586.6818,-84 1586.6818,-98 1586.6818,-98 1586.6818,-104 1580.6818,-110 1574.6818,-110"/>
<text text-anchor="middle" x="1538.0244" y="-98" font-family="sans" font-size="10.00" fill="#000000">sr_result_cleaning</text>
<text text-anchor="middle" x="1538.0244" y="-88" font-family="sans" font-size="10.00" fill="#000000">dv: sra</text>
<text text-anchor="middle" x="1538.0244" y="-78" font-family="sans" font-size="10.00" fill="#000000">sample: br</text>
</g>
<!-- 15&#45;&gt;0 -->
<g id="edge15" class="edge">
<title>15&#45;&gt;0</title>
<path fill="none" stroke="#c0c0c0" stroke-width="2" d="M1553.0005,-71.8201C1559.5665,-63.411 1567.3792,-53.4053 1574.4767,-44.3155"/>
<polygon fill="#c0c0c0" stroke="#c0c0c0" stroke-width="2" points="1577.3417,-46.3333 1580.7374,-36.2973 1571.8244,-42.0252 1577.3417,-46.3333"/>
</g>
<!-- 16 -->
<g id="node17" class="node">
<title>16</title>
<path fill="none" stroke="#80d856" stroke-width="2" stroke-dasharray="5,2" d="M1689.6818,-110C1689.6818,-110 1616.3671,-110 1616.3671,-110 1610.3671,-110 1604.3671,-104 1604.3671,-98 1604.3671,-98 1604.3671,-84 1604.3671,-84 1604.3671,-78 1610.3671,-72 1616.3671,-72 1616.3671,-72 1689.6818,-72 1689.6818,-72 1695.6818,-72 1701.6818,-78 1701.6818,-84 1701.6818,-84 1701.6818,-98 1701.6818,-98 1701.6818,-104 1695.6818,-110 1689.6818,-110"/>
<text text-anchor="middle" x="1653.0244" y="-98" font-family="sans" font-size="10.00" fill="#000000">sr_result_cleaning</text>
<text text-anchor="middle" x="1653.0244" y="-88" font-family="sans" font-size="10.00" fill="#000000">dv: srm</text>
<text text-anchor="middle" x="1653.0244" y="-78" font-family="sans" font-size="10.00" fill="#000000">sample: all</text>
</g>
<!-- 16&#45;&gt;0 -->
<g id="edge16" class="edge">
<title>16&#45;&gt;0</title>
<path fill="none" stroke="#c0c0c0" stroke-width="2" d="M1637.7856,-71.8201C1631.1044,-63.411 1623.1546,-53.4053 1615.9326,-44.3155"/>
<polygon fill="#c0c0c0" stroke="#c0c0c0" stroke-width="2" points="1618.5232,-41.9497 1609.562,-36.2973 1613.0425,-46.3042 1618.5232,-41.9497"/>
</g>
<!-- 17 -->
<g id="node18" class="node">
<title>17</title>
<path fill="none" stroke="#56d882" stroke-width="2" stroke-dasharray="5,2" d="M1804.0733,-110C1804.0733,-110 1731.9756,-110 1731.9756,-110 1725.9756,-110 1719.9756,-104 1719.9756,-98 1719.9756,-98 1719.9756,-84 1719.9756,-84 1719.9756,-78 1725.9756,-72 1731.9756,-72 1731.9756,-72 1804.0733,-72 1804.0733,-72 1810.0733,-72 1816.0733,-78 1816.0733,-84 1816.0733,-84 1816.0733,-98 1816.0733,-98 1816.0733,-104 1810.0733,-110 1804.0733,-110"/>
<text text-anchor="middle" x="1768.0244" y="-98" font-family="sans" font-size="10.00" fill="#000000">jif_result_cleaning</text>
<text text-anchor="middle" x="1768.0244" y="-88" font-family="sans" font-size="10.00" fill="#000000">sample: br</text>
<text text-anchor="middle" x="1768.0244" y="-78" font-family="sans" font-size="10.00" fill="#000000">year: 2012</text>
</g>
<!-- 17&#45;&gt;0 -->
<g id="edge17" class="edge">
<title>17&#45;&gt;0</title>
<path fill="none" stroke="#c0c0c0" stroke-width="2" d="M1722.5707,-71.8201C1694.1282,-59.8184 1657.9778,-44.5641 1631.4316,-33.3626"/>
<polygon fill="#c0c0c0" stroke="#c0c0c0" stroke-width="2" points="1632.6921,-30.0957 1622.1181,-29.4326 1629.9707,-36.545 1632.6921,-30.0957"/>
</g>
<!-- 18 -->
<g id="node19" class="node">
<title>18</title>
<path fill="none" stroke="#80d856" stroke-width="2" stroke-dasharray="5,2" d="M1919.6818,-110C1919.6818,-110 1846.3671,-110 1846.3671,-110 1840.3671,-110 1834.3671,-104 1834.3671,-98 1834.3671,-98 1834.3671,-84 1834.3671,-84 1834.3671,-78 1840.3671,-72 1846.3671,-72 1846.3671,-72 1919.6818,-72 1919.6818,-72 1925.6818,-72 1931.6818,-78 1931.6818,-84 1931.6818,-84 1931.6818,-98 1931.6818,-98 1931.6818,-104 1925.6818,-110 1919.6818,-110"/>
<text text-anchor="middle" x="1883.0244" y="-98" font-family="sans" font-size="10.00" fill="#000000">sr_result_cleaning</text>
<text text-anchor="middle" x="1883.0244" y="-88" font-family="sans" font-size="10.00" fill="#000000">dv: srb</text>
<text text-anchor="middle" x="1883.0244" y="-78" font-family="sans" font-size="10.00" fill="#000000">sample: all</text>
</g>
<!-- 18&#45;&gt;0 -->
<g id="edge18" class="edge">
<title>18&#45;&gt;0</title>
<path fill="none" stroke="#c0c0c0" stroke-width="2" d="M1834.3831,-74.7297C1831.2247,-73.7774 1828.085,-72.8589 1825.0244,-72 1757.6123,-53.0825 1677.8363,-35.3835 1632.1589,-25.6893"/>
<polygon fill="#c0c0c0" stroke="#c0c0c0" stroke-width="2" points="1632.6346,-22.2127 1622.1274,-23.5729 1631.1895,-29.0619 1632.6346,-22.2127"/>
</g>
<!-- 19 -->
<g id="node20" class="node">
<title>19</title>
<path fill="none" stroke="#56d882" stroke-width="2" stroke-dasharray="5,2" d="M2034.0733,-110C2034.0733,-110 1961.9756,-110 1961.9756,-110 1955.9756,-110 1949.9756,-104 1949.9756,-98 1949.9756,-98 1949.9756,-84 1949.9756,-84 1949.9756,-78 1955.9756,-72 1961.9756,-72 1961.9756,-72 2034.0733,-72 2034.0733,-72 2040.0733,-72 2046.0733,-78 2046.0733,-84 2046.0733,-84 2046.0733,-98 2046.0733,-98 2046.0733,-104 2040.0733,-110 2034.0733,-110"/>
<text text-anchor="middle" x="1998.0244" y="-98" font-family="sans" font-size="10.00" fill="#000000">jif_result_cleaning</text>
<text text-anchor="middle" x="1998.0244" y="-88" font-family="sans" font-size="10.00" fill="#000000">sample: he</text>
<text text-anchor="middle" x="1998.0244" y="-78" font-family="sans" font-size="10.00" fill="#000000">year: 2014</text>
</g>
<!-- 19&#45;&gt;0 -->
<g id="edge19" class="edge">
<title>19&#45;&gt;0</title>
<path fill="none" stroke="#c0c0c0" stroke-width="2" d="M1949.9869,-74.3605C1946.969,-73.5101 1943.964,-72.714 1941.0244,-72 1830.2171,-45.0849 1696.051,-28.6226 1632.2327,-21.744"/>
<polygon fill="#c0c0c0" stroke="#c0c0c0" stroke-width="2" points="1632.5581,-18.2589 1622.2445,-20.6841 1631.8194,-25.2198 1632.5581,-18.2589"/>
</g>
<!-- 20 -->
<g id="node21" class="node">
<title>20</title>
<path fill="none" stroke="#56d882" stroke-width="2" stroke-dasharray="5,2" d="M2148.0733,-110C2148.0733,-110 2075.9756,-110 2075.9756,-110 2069.9756,-110 2063.9756,-104 2063.9756,-98 2063.9756,-98 2063.9756,-84 2063.9756,-84 2063.9756,-78 2069.9756,-72 2075.9756,-72 2075.9756,-72 2148.0733,-72 2148.0733,-72 2154.0733,-72 2160.0733,-78 2160.0733,-84 2160.0733,-84 2160.0733,-98 2160.0733,-98 2160.0733,-104 2154.0733,-110 2148.0733,-110"/>
<text text-anchor="middle" x="2112.0244" y="-98" font-family="sans" font-size="10.00" fill="#000000">jif_result_cleaning</text>
<text text-anchor="middle" x="2112.0244" y="-88" font-family="sans" font-size="10.00" fill="#000000">sample: br</text>
<text text-anchor="middle" x="2112.0244" y="-78" font-family="sans" font-size="10.00" fill="#000000">year: 2010</text>
</g>
<!-- 20&#45;&gt;0 -->
<g id="edge20" class="edge">
<title>20&#45;&gt;0</title>
<path fill="none" stroke="#c0c0c0" stroke-width="2" d="M2063.7047,-74.1442C2060.7842,-73.3591 2057.8752,-72.6354 2055.0244,-72 1900.4235,-37.5413 1711.3846,-24.1399 1632.4431,-19.7923"/>
<polygon fill="#c0c0c0" stroke="#c0c0c0" stroke-width="2" points="1632.2222,-16.2757 1622.0498,-19.2377 1631.8491,-23.2657 1632.2222,-16.2757"/>
</g>
<!-- 21 -->
<g id="node22" class="node">
<title>21</title>
<path fill="none" stroke="#d8ac56" stroke-width="2" stroke-dasharray="5,2" d="M2798.5373,-542C2798.5373,-542 2717.5116,-542 2717.5116,-542 2711.5116,-542 2705.5116,-536 2705.5116,-530 2705.5116,-530 2705.5116,-518 2705.5116,-518 2705.5116,-512 2711.5116,-506 2717.5116,-506 2717.5116,-506 2798.5373,-506 2798.5373,-506 2804.5373,-506 2810.5373,-512 2810.5373,-518 2810.5373,-518 2810.5373,-530 2810.5373,-530 2810.5373,-536 2804.5373,-542 2798.5373,-542"/>
<text text-anchor="middle" x="2758.0244" y="-521" font-family="sans" font-size="10.00" fill="#000000">main_data_cleaning</text>
</g>
<!-- 21&#45;&gt;0 -->
<g id="edge21" class="edge">
<title>21&#45;&gt;0</title>
<path fill="none" stroke="#c0c0c0" stroke-width="2" d="M2810.7124,-513.2611C2906.6462,-492.184 3100.0244,-442.0076 3100.0244,-380 3100.0244,-380 3100.0244,-380 3100.0244,-164 3100.0244,-122.2482 3112.9113,-98.9524 3081.0244,-72 3024.0416,-23.8353 1857.8164,-18.6237 1632.5164,-18.0661"/>
<polygon fill="#c0c0c0" stroke="#c0c0c0" stroke-width="2" points="1632.2212,-14.5655 1622.2131,-18.0423 1632.205,-21.5655 1632.2212,-14.5655"/>
</g>
<!-- 32 -->
<g id="node33" class="node">
<title>32</title>
<path fill="none" stroke="#d88556" stroke-width="2" stroke-dasharray="5,2" d="M2652.0226,-326C2652.0226,-326 2560.0263,-326 2560.0263,-326 2554.0263,-326 2548.0263,-320 2548.0263,-314 2548.0263,-314 2548.0263,-302 2548.0263,-302 2548.0263,-296 2554.0263,-290 2560.0263,-290 2560.0263,-290 2652.0226,-290 2652.0226,-290 2658.0226,-290 2664.0226,-296 2664.0226,-302 2664.0226,-302 2664.0226,-314 2664.0226,-314 2664.0226,-320 2658.0226,-326 2652.0226,-326"/>
<text text-anchor="middle" x="2606.0244" y="-305" font-family="sans" font-size="10.00" fill="#000000">multi_author_with_cov</text>
</g>
<!-- 21&#45;&gt;32 -->
<g id="edge59" class="edge">
<title>21&#45;&gt;32</title>
<path fill="none" stroke="#c0c0c0" stroke-width="2" d="M2756.2891,-505.8642C2752.2001,-472.9007 2739.0648,-402.8072 2699.0244,-362 2687.0046,-349.7501 2671.6262,-339.335 2656.8507,-331.0165"/>
<polygon fill="#c0c0c0" stroke="#c0c0c0" stroke-width="2" points="2658.2264,-327.7818 2647.7642,-326.1104 2654.9006,-333.9413 2658.2264,-327.7818"/>
</g>
<!-- 35 -->
<g id="node36" class="node">
<title>35</title>
<path fill="none" stroke="#56d8d8" stroke-width="2" stroke-dasharray="5,2" d="M2718.1451,-470C2718.1451,-470 2605.9038,-470 2605.9038,-470 2599.9038,-470 2593.9038,-464 2593.9038,-458 2593.9038,-458 2593.9038,-446 2593.9038,-446 2593.9038,-440 2599.9038,-434 2605.9038,-434 2605.9038,-434 2718.1451,-434 2718.1451,-434 2724.1451,-434 2730.1451,-440 2730.1451,-446 2730.1451,-446 2730.1451,-458 2730.1451,-458 2730.1451,-464 2724.1451,-470 2718.1451,-470"/>
<text text-anchor="middle" x="2662.0244" y="-449" font-family="sans" font-size="10.00" fill="#000000">cal_female_frac_per_mesh</text>
</g>
<!-- 21&#45;&gt;35 -->
<g id="edge65" class="edge">
<title>21&#45;&gt;35</title>
<path fill="none" stroke="#c0c0c0" stroke-width="2" d="M2733.7996,-505.8314C2721.8617,-496.8779 2707.2989,-485.9558 2694.4184,-476.2955"/>
<polygon fill="#c0c0c0" stroke="#c0c0c0" stroke-width="2" points="2696.3416,-473.3629 2686.2415,-470.1628 2692.1415,-478.9629 2696.3416,-473.3629"/>
</g>
<!-- 22 -->
<g id="node23" class="node">
<title>22</title>
<path fill="none" stroke="#56d882" stroke-width="2" stroke-dasharray="5,2" d="M2262.0733,-110C2262.0733,-110 2189.9756,-110 2189.9756,-110 2183.9756,-110 2177.9756,-104 2177.9756,-98 2177.9756,-98 2177.9756,-84 2177.9756,-84 2177.9756,-78 2183.9756,-72 2189.9756,-72 2189.9756,-72 2262.0733,-72 2262.0733,-72 2268.0733,-72 2274.0733,-78 2274.0733,-84 2274.0733,-84 2274.0733,-98 2274.0733,-98 2274.0733,-104 2268.0733,-110 2262.0733,-110"/>
<text text-anchor="middle" x="2226.0244" y="-98" font-family="sans" font-size="10.00" fill="#000000">jif_result_cleaning</text>
<text text-anchor="middle" x="2226.0244" y="-88" font-family="sans" font-size="10.00" fill="#000000">sample: he</text>
<text text-anchor="middle" x="2226.0244" y="-78" font-family="sans" font-size="10.00" fill="#000000">year: 2016</text>
</g>
<!-- 22&#45;&gt;0 -->
<g id="edge22" class="edge">
<title>22&#45;&gt;0</title>
<path fill="none" stroke="#c0c0c0" stroke-width="2" d="M2177.7217,-74.0659C2174.7969,-73.3005 2171.8823,-72.6025 2169.0244,-72 1969.7705,-29.9937 1724.6989,-20.6486 1632.4733,-18.582"/>
<polygon fill="#c0c0c0" stroke="#c0c0c0" stroke-width="2" points="1632.3204,-15.0782 1622.2497,-18.3692 1632.1747,-22.0766 1632.3204,-15.0782"/>
</g>
<!-- 23 -->
<g id="node24" class="node">
<title>23</title>
<path fill="none" stroke="#56d882" stroke-width="2" stroke-dasharray="5,2" d="M2376.0733,-110C2376.0733,-110 2303.9756,-110 2303.9756,-110 2297.9756,-110 2291.9756,-104 2291.9756,-98 2291.9756,-98 2291.9756,-84 2291.9756,-84 2291.9756,-78 2297.9756,-72 2303.9756,-72 2303.9756,-72 2376.0733,-72 2376.0733,-72 2382.0733,-72 2388.0733,-78 2388.0733,-84 2388.0733,-84 2388.0733,-98 2388.0733,-98 2388.0733,-104 2382.0733,-110 2376.0733,-110"/>
<text text-anchor="middle" x="2340.0244" y="-98" font-family="sans" font-size="10.00" fill="#000000">jif_result_cleaning</text>
<text text-anchor="middle" x="2340.0244" y="-88" font-family="sans" font-size="10.00" fill="#000000">sample: all</text>
<text text-anchor="middle" x="2340.0244" y="-78" font-family="sans" font-size="10.00" fill="#000000">year: 2012</text>
</g>
<!-- 23&#45;&gt;0 -->
<g id="edge23" class="edge">
<title>23&#45;&gt;0</title>
<path fill="none" stroke="#c0c0c0" stroke-width="2" d="M2291.7326,-74.0132C2288.8051,-73.2611 2285.8869,-72.5804 2283.0244,-72 2156.6618,-46.3799 1756.4753,-25.6703 1632.2059,-19.7234"/>
<polygon fill="#c0c0c0" stroke="#c0c0c0" stroke-width="2" points="1632.2117,-16.2198 1622.0569,-19.2413 1631.8795,-23.2119 1632.2117,-16.2198"/>
</g>
<!-- 24 -->
<g id="node25" class="node">
<title>24</title>
<path fill="none" stroke="#56d882" stroke-width="2" stroke-dasharray="5,2" d="M2490.0733,-110C2490.0733,-110 2417.9756,-110 2417.9756,-110 2411.9756,-110 2405.9756,-104 2405.9756,-98 2405.9756,-98 2405.9756,-84 2405.9756,-84 2405.9756,-78 2411.9756,-72 2417.9756,-72 2417.9756,-72 2490.0733,-72 2490.0733,-72 2496.0733,-72 2502.0733,-78 2502.0733,-84 2502.0733,-84 2502.0733,-98 2502.0733,-98 2502.0733,-104 2496.0733,-110 2490.0733,-110"/>
<text text-anchor="middle" x="2454.0244" y="-98" font-family="sans" font-size="10.00" fill="#000000">jif_result_cleaning</text>
<text text-anchor="middle" x="2454.0244" y="-88" font-family="sans" font-size="10.00" fill="#000000">sample: all</text>
<text text-anchor="middle" x="2454.0244" y="-78" font-family="sans" font-size="10.00" fill="#000000">year: 2008</text>
</g>
<!-- 24&#45;&gt;0 -->
<g id="edge24" class="edge">
<title>24&#45;&gt;0</title>
<path fill="none" stroke="#c0c0c0" stroke-width="2" d="M2405.7401,-73.9754C2402.8107,-73.2328 2399.8901,-72.5645 2397.0244,-72 2247.5673,-42.5599 1769.7734,-24.0609 1632.334,-19.2523"/>
<polygon fill="#c0c0c0" stroke="#c0c0c0" stroke-width="2" points="1632.4123,-15.753 1622.297,-18.9044 1632.1698,-22.7488 1632.4123,-15.753"/>
</g>
<!-- 25 -->
<g id="node26" class="node">
<title>25</title>
<path fill="none" stroke="#56d882" stroke-width="2" stroke-dasharray="5,2" d="M2604.0733,-110C2604.0733,-110 2531.9756,-110 2531.9756,-110 2525.9756,-110 2519.9756,-104 2519.9756,-98 2519.9756,-98 2519.9756,-84 2519.9756,-84 2519.9756,-78 2525.9756,-72 2531.9756,-72 2531.9756,-72 2604.0733,-72 2604.0733,-72 2610.0733,-72 2616.0733,-78 2616.0733,-84 2616.0733,-84 2616.0733,-98 2616.0733,-98 2616.0733,-104 2610.0733,-110 2604.0733,-110"/>
<text text-anchor="middle" x="2568.0244" y="-98" font-family="sans" font-size="10.00" fill="#000000">jif_result_cleaning</text>
<text text-anchor="middle" x="2568.0244" y="-88" font-family="sans" font-size="10.00" fill="#000000">sample: cm</text>
<text text-anchor="middle" x="2568.0244" y="-78" font-family="sans" font-size="10.00" fill="#000000">year: 2010</text>
</g>
<!-- 25&#45;&gt;0 -->
<g id="edge25" class="edge">
<title>25&#45;&gt;0</title>
<path fill="none" stroke="#c0c0c0" stroke-width="2" d="M2519.7457,-73.9469C2516.8149,-73.2115 2513.8924,-72.5525 2511.0244,-72 2338.2132,-38.7081 1781.3728,-22.6585 1632.1222,-18.8875"/>
<polygon fill="#c0c0c0" stroke="#c0c0c0" stroke-width="2" points="1632.1757,-15.3878 1622.0914,-18.6371 1632.001,-22.3856 1632.1757,-15.3878"/>
</g>
<!-- 26 -->
<g id="node27" class="node">
<title>26</title>
<path fill="none" stroke="#56d882" stroke-width="2" stroke-dasharray="5,2" d="M2718.0733,-110C2718.0733,-110 2645.9756,-110 2645.9756,-110 2639.9756,-110 2633.9756,-104 2633.9756,-98 2633.9756,-98 2633.9756,-84 2633.9756,-84 2633.9756,-78 2639.9756,-72 2645.9756,-72 2645.9756,-72 2718.0733,-72 2718.0733,-72 2724.0733,-72 2730.0733,-78 2730.0733,-84 2730.0733,-84 2730.0733,-98 2730.0733,-98 2730.0733,-104 2724.0733,-110 2718.0733,-110"/>
<text text-anchor="middle" x="2682.0244" y="-98" font-family="sans" font-size="10.00" fill="#000000">jif_result_cleaning</text>
<text text-anchor="middle" x="2682.0244" y="-88" font-family="sans" font-size="10.00" fill="#000000">sample: all</text>
<text text-anchor="middle" x="2682.0244" y="-78" font-family="sans" font-size="10.00" fill="#000000">year: 2014</text>
</g>
<!-- 26&#45;&gt;0 -->
<g id="edge26" class="edge">
<title>26&#45;&gt;0</title>
<path fill="none" stroke="#c0c0c0" stroke-width="2" d="M2633.7499,-73.9247C2630.8181,-73.1948 2627.8942,-72.5432 2625.0244,-72 2428.9566,-34.8887 1793.5703,-21.4662 1632.4407,-18.6142"/>
<polygon fill="#c0c0c0" stroke="#c0c0c0" stroke-width="2" points="1632.1555,-15.1088 1622.0961,-18.4342 1632.0336,-22.1077 1632.1555,-15.1088"/>
</g>
<!-- 27 -->
<g id="node28" class="node">
<title>27</title>
<path fill="none" stroke="#56d882" stroke-width="2" stroke-dasharray="5,2" d="M2832.0733,-110C2832.0733,-110 2759.9756,-110 2759.9756,-110 2753.9756,-110 2747.9756,-104 2747.9756,-98 2747.9756,-98 2747.9756,-84 2747.9756,-84 2747.9756,-78 2753.9756,-72 2759.9756,-72 2759.9756,-72 2832.0733,-72 2832.0733,-72 2838.0733,-72 2844.0733,-78 2844.0733,-84 2844.0733,-84 2844.0733,-98 2844.0733,-98 2844.0733,-104 2838.0733,-110 2832.0733,-110"/>
<text text-anchor="middle" x="2796.0244" y="-98" font-family="sans" font-size="10.00" fill="#000000">jif_result_cleaning</text>
<text text-anchor="middle" x="2796.0244" y="-88" font-family="sans" font-size="10.00" fill="#000000">sample: br</text>
<text text-anchor="middle" x="2796.0244" y="-78" font-family="sans" font-size="10.00" fill="#000000">year: 2016</text>
</g>
<!-- 27&#45;&gt;0 -->
<g id="edge27" class="edge">
<title>27&#45;&gt;0</title>
<path fill="none" stroke="#c0c0c0" stroke-width="2" d="M2747.7532,-73.9069C2744.8206,-73.1815 2741.8956,-72.5357 2739.0244,-72 2519.3347,-31.0103 1803.3727,-20.3695 1632.085,-18.3844"/>
<polygon fill="#c0c0c0" stroke="#c0c0c0" stroke-width="2" points="1632.0909,-14.8843 1622.052,-18.2708 1632.0117,-21.8838 1632.0909,-14.8843"/>
</g>
<!-- 28 -->
<g id="node29" class="node">
<title>28</title>
<path fill="none" stroke="#56d882" stroke-width="2" stroke-dasharray="5,2" d="M2946.0733,-110C2946.0733,-110 2873.9756,-110 2873.9756,-110 2867.9756,-110 2861.9756,-104 2861.9756,-98 2861.9756,-98 2861.9756,-84 2861.9756,-84 2861.9756,-78 2867.9756,-72 2873.9756,-72 2873.9756,-72 2946.0733,-72 2946.0733,-72 2952.0733,-72 2958.0733,-78 2958.0733,-84 2958.0733,-84 2958.0733,-98 2958.0733,-98 2958.0733,-104 2952.0733,-110 2946.0733,-110"/>
<text text-anchor="middle" x="2910.0244" y="-98" font-family="sans" font-size="10.00" fill="#000000">jif_result_cleaning</text>
<text text-anchor="middle" x="2910.0244" y="-88" font-family="sans" font-size="10.00" fill="#000000">sample: he</text>
<text text-anchor="middle" x="2910.0244" y="-78" font-family="sans" font-size="10.00" fill="#000000">year: 2010</text>
</g>
<!-- 28&#45;&gt;0 -->
<g id="edge28" class="edge">
<title>28&#45;&gt;0</title>
<path fill="none" stroke="#c0c0c0" stroke-width="2" d="M2861.756,-73.8924C2858.8226,-73.1706 2855.8967,-72.5296 2853.0244,-72 2609.8351,-27.1626 1813.9457,-19.4005 1632.2069,-18.2018"/>
<polygon fill="#c0c0c0" stroke="#c0c0c0" stroke-width="2" points="1632.1084,-14.7012 1622.0864,-18.1377 1632.064,-21.701 1632.1084,-14.7012"/>
</g>
<!-- 29 -->
<g id="node30" class="node">
<title>29</title>
<path fill="none" stroke="#5682d8" stroke-width="2" stroke-dasharray="5,2" d="M1614.2146,-182C1614.2146,-182 1575.8342,-182 1575.8342,-182 1569.8342,-182 1563.8342,-176 1563.8342,-170 1563.8342,-170 1563.8342,-158 1563.8342,-158 1563.8342,-152 1569.8342,-146 1575.8342,-146 1575.8342,-146 1614.2146,-146 1614.2146,-146 1620.2146,-146 1626.2146,-152 1626.2146,-158 1626.2146,-158 1626.2146,-170 1626.2146,-170 1626.2146,-176 1620.2146,-182 1614.2146,-182"/>
<text text-anchor="middle" x="1595.0244" y="-161" font-family="sans" font-size="10.00" fill="#000000">regression</text>
</g>
<!-- 29&#45;&gt;1 -->
<g id="edge29" class="edge">
<title>29&#45;&gt;1</title>
<path fill="none" stroke="#c0c0c0" stroke-width="2" d="M1626.2777,-163.2987C1814.0649,-159.0161 2790.0188,-135.7683 2965.7849,-109.7571"/>
<polygon fill="#c0c0c0" stroke="#c0c0c0" stroke-width="2" points="2966.4573,-113.1937 2975.7582,-108.1198 2965.3232,-106.2861 2966.4573,-113.1937"/>
</g>
<!-- 29&#45;&gt;2 -->
<g id="edge30" class="edge">
<title>29&#45;&gt;2</title>
<path fill="none" stroke="#c0c0c0" stroke-width="2" d="M1563.7305,-163.4019C1366.2329,-159.5578 295.0744,-137.6579 106.2737,-109.7618"/>
<polygon fill="#c0c0c0" stroke="#c0c0c0" stroke-width="2" points="106.7222,-106.2887 96.2887,-108.1305 105.5935,-113.1971 106.7222,-106.2887"/>
</g>
<!-- 29&#45;&gt;3 -->
<g id="edge31" class="edge">
<title>29&#45;&gt;3</title>
<path fill="none" stroke="#c0c0c0" stroke-width="2" d="M1563.6801,-163.3004C1375.3455,-159.0281 396.5468,-135.8306 220.2914,-109.7613"/>
<polygon fill="#c0c0c0" stroke="#c0c0c0" stroke-width="2" points="220.7254,-106.2858 210.2906,-108.1202 219.5918,-113.1934 220.7254,-106.2858"/>
</g>
<!-- 29&#45;&gt;4 -->
<g id="edge32" class="edge">
<title>29&#45;&gt;4</title>
<path fill="none" stroke="#c0c0c0" stroke-width="2" d="M1563.5556,-163.84C1395.332,-162.8073 600.2429,-155.6465 334.2873,-109.8923"/>
<polygon fill="#c0c0c0" stroke="#c0c0c0" stroke-width="2" points="334.7523,-106.4201 324.2928,-108.1081 333.522,-113.3111 334.7523,-106.4201"/>
</g>
<!-- 29&#45;&gt;5 -->
<g id="edge33" class="edge">
<title>29&#45;&gt;5</title>
<path fill="none" stroke="#c0c0c0" stroke-width="2" d="M1563.8034,-163.6883C1405.5935,-161.9357 690.7874,-151.8997 448.4428,-109.9223"/>
<polygon fill="#c0c0c0" stroke="#c0c0c0" stroke-width="2" points="448.7577,-106.4227 438.2955,-108.0936 447.5162,-113.3118 448.7577,-106.4227"/>
</g>
<!-- 29&#45;&gt;6 -->
<g id="edge34" class="edge">
<title>29&#45;&gt;6</title>
<path fill="none" stroke="#c0c0c0" stroke-width="2" d="M1563.7259,-163.5003C1415.2926,-160.9603 780.7674,-148.1451 562.38,-109.9157"/>
<polygon fill="#c0c0c0" stroke="#c0c0c0" stroke-width="2" points="562.7647,-106.4281 552.2988,-108.0759 561.508,-113.3144 562.7647,-106.4281"/>
</g>
<!-- 29&#45;&gt;7 -->
<g id="edge35" class="edge">
<title>29&#45;&gt;7</title>
<path fill="none" stroke="#c0c0c0" stroke-width="2" d="M1563.7755,-163.2662C1426.0417,-159.8659 871.7666,-144.4024 677.6846,-109.9972"/>
<polygon fill="#c0c0c0" stroke="#c0c0c0" stroke-width="2" points="678.0873,-106.5124 667.617,-108.1322 676.8122,-113.3953 678.0873,-106.5124"/>
</g>
<!-- 29&#45;&gt;8 -->
<g id="edge36" class="edge">
<title>29&#45;&gt;8</title>
<path fill="none" stroke="#c0c0c0" stroke-width="2" d="M1563.4801,-162.9298C1436.7078,-158.4703 963.4121,-140.2571 792.9096,-109.8222"/>
<polygon fill="#c0c0c0" stroke="#c0c0c0" stroke-width="2" points="793.3177,-106.3379 782.8449,-107.9417 792.032,-113.2188 793.3177,-106.3379"/>
</g>
<!-- 29&#45;&gt;9 -->
<g id="edge37" class="edge">
<title>29&#45;&gt;9</title>
<path fill="none" stroke="#c0c0c0" stroke-width="2" d="M1563.6756,-162.5587C1449.2779,-157.1451 1053.7878,-137.0432 907.4171,-109.9498"/>
<polygon fill="#c0c0c0" stroke="#c0c0c0" stroke-width="2" points="907.8002,-106.4589 897.3162,-107.9872 906.465,-113.3304 907.8002,-106.4589"/>
</g>
<!-- 29&#45;&gt;10 -->
<g id="edge38" class="edge">
<title>29&#45;&gt;10</title>
<path fill="none" stroke="#c0c0c0" stroke-width="2" d="M1563.6048,-163.4845C1477.9549,-161.5648 1233.3016,-152.6471 1022.8586,-109.9073"/>
<polygon fill="#c0c0c0" stroke="#c0c0c0" stroke-width="2" points="1023.3649,-106.4381 1012.8641,-107.8464 1021.9512,-113.2939 1023.3649,-106.4381"/>
</g>
<!-- 29&#45;&gt;11 -->
<g id="edge39" class="edge">
<title>29&#45;&gt;11</title>
<path fill="none" stroke="#c0c0c0" stroke-width="2" d="M1563.7651,-162.5297C1490.4851,-158.616 1301.9691,-145.8365 1137.1639,-110.0228"/>
<polygon fill="#c0c0c0" stroke="#c0c0c0" stroke-width="2" points="1137.8637,-106.593 1127.3443,-107.855 1136.3547,-113.4285 1137.8637,-106.593"/>
</g>
<!-- 29&#45;&gt;12 -->
<g id="edge40" class="edge">
<title>29&#45;&gt;12</title>
<path fill="none" stroke="#c0c0c0" stroke-width="2" d="M1563.7572,-160.8714C1504.3971,-154.555 1371.2773,-138.5865 1250.8192,-109.9892"/>
<polygon fill="#c0c0c0" stroke="#c0c0c0" stroke-width="2" points="1251.604,-106.5782 1241.0623,-107.638 1249.964,-113.3834 1251.604,-106.5782"/>
</g>
<!-- 29&#45;&gt;13 -->
<g id="edge41" class="edge">
<title>29&#45;&gt;13</title>
<path fill="none" stroke="#c0c0c0" stroke-width="2" d="M1563.6956,-157.4963C1521.2068,-148.4841 1442.7922,-131.1747 1366.4481,-110.004"/>
<polygon fill="#c0c0c0" stroke="#c0c0c0" stroke-width="2" points="1367.24,-106.5913 1356.6667,-107.2668 1365.3535,-113.3323 1367.24,-106.5913"/>
</g>
<!-- 29&#45;&gt;14 -->
<g id="edge42" class="edge">
<title>29&#45;&gt;14</title>
<path fill="none" stroke="#c0c0c0" stroke-width="2" d="M1563.477,-150.6107C1539.4284,-140.404 1505.7294,-126.1015 1477.3685,-114.0646"/>
<polygon fill="#c0c0c0" stroke="#c0c0c0" stroke-width="2" points="1478.5494,-110.7637 1467.9767,-110.0786 1475.8145,-117.2074 1478.5494,-110.7637"/>
</g>
<!-- 29&#45;&gt;15 -->
<g id="edge43" class="edge">
<title>29&#45;&gt;15</title>
<path fill="none" stroke="#c0c0c0" stroke-width="2" d="M1580.9345,-145.9551C1574.356,-137.5299 1566.3873,-127.3245 1559.1114,-118.0062"/>
<polygon fill="#c0c0c0" stroke="#c0c0c0" stroke-width="2" points="1561.8612,-115.8407 1552.9481,-110.1128 1556.3439,-120.1488 1561.8612,-115.8407"/>
</g>
<!-- 29&#45;&gt;16 -->
<g id="edge44" class="edge">
<title>29&#45;&gt;16</title>
<path fill="none" stroke="#c0c0c0" stroke-width="2" d="M1609.3615,-145.9551C1616.0555,-137.5299 1624.1639,-127.3245 1631.5674,-118.0062"/>
<polygon fill="#c0c0c0" stroke="#c0c0c0" stroke-width="2" points="1634.3584,-120.1197 1637.8389,-110.1128 1628.8777,-115.7651 1634.3584,-120.1197"/>
</g>
<!-- 29&#45;&gt;17 -->
<g id="edge45" class="edge">
<title>29&#45;&gt;17</title>
<path fill="none" stroke="#c0c0c0" stroke-width="2" d="M1626.3534,-150.7803C1650.5858,-140.555 1684.7326,-126.1463 1713.4304,-114.0368"/>
<polygon fill="#c0c0c0" stroke="#c0c0c0" stroke-width="2" points="1715.0789,-117.1401 1722.9316,-110.0276 1712.3575,-110.6907 1715.0789,-117.1401"/>
</g>
<!-- 29&#45;&gt;18 -->
<g id="edge46" class="edge">
<title>29&#45;&gt;18</title>
<path fill="none" stroke="#c0c0c0" stroke-width="2" d="M1626.4918,-157.5094C1669.1682,-148.5122 1747.9276,-131.2204 1824.5645,-110.0126"/>
<polygon fill="#c0c0c0" stroke="#c0c0c0" stroke-width="2" points="1825.6932,-113.3314 1834.3831,-107.2703 1823.8102,-106.5894 1825.6932,-113.3314"/>
</g>
<!-- 29&#45;&gt;19 -->
<g id="edge47" class="edge">
<title>29&#45;&gt;19</title>
<path fill="none" stroke="#c0c0c0" stroke-width="2" d="M1626.3826,-160.8809C1685.9153,-154.5805 1819.4217,-138.6383 1940.2038,-109.9947"/>
<polygon fill="#c0c0c0" stroke="#c0c0c0" stroke-width="2" points="1941.0839,-113.3829 1949.9869,-107.6395 1939.4455,-106.5773 1941.0839,-113.3829"/>
</g>
<!-- 29&#45;&gt;20 -->
<g id="edge48" class="edge">
<title>29&#45;&gt;20</title>
<path fill="none" stroke="#c0c0c0" stroke-width="2" d="M1626.3518,-162.5371C1699.7916,-158.6391 1888.7185,-145.8911 2053.8648,-110.0267"/>
<polygon fill="#c0c0c0" stroke="#c0c0c0" stroke-width="2" points="2054.6936,-113.4281 2063.7047,-107.8558 2053.1854,-106.5925 2054.6936,-113.4281"/>
</g>
<!-- 29&#45;&gt;22 -->
<g id="edge50" class="edge">
<title>29&#45;&gt;22</title>
<path fill="none" stroke="#c0c0c0" stroke-width="2" d="M1626.5105,-163.5462C1712.3392,-161.7815 1957.4866,-153.2203 2167.7369,-110.0177"/>
<polygon fill="#c0c0c0" stroke="#c0c0c0" stroke-width="2" points="2168.6475,-113.4031 2177.7217,-107.9341 2167.2175,-106.5507 2168.6475,-113.4031"/>
</g>
<!-- 29&#45;&gt;23 -->
<g id="edge51" class="edge">
<title>29&#45;&gt;23</title>
<path fill="none" stroke="#c0c0c0" stroke-width="2" d="M1626.3277,-162.5567C1740.5595,-157.1365 2135.4758,-137.0138 2281.6455,-109.9474"/>
<polygon fill="#c0c0c0" stroke="#c0c0c0" stroke-width="2" points="2282.5841,-113.3306 2291.7326,-107.9868 2281.2484,-106.4592 2282.5841,-113.3306"/>
</g>
<!-- 29&#45;&gt;24 -->
<g id="edge52" class="edge">
<title>29&#45;&gt;24</title>
<path fill="none" stroke="#c0c0c0" stroke-width="2" d="M1626.5336,-162.9496C1753.1643,-158.5665 2225.9251,-140.6093 2395.719,-109.9212"/>
<polygon fill="#c0c0c0" stroke="#c0c0c0" stroke-width="2" points="2396.5655,-113.3233 2405.7401,-108.0246 2395.2636,-106.4454 2396.5655,-113.3233"/>
</g>
<!-- 29&#45;&gt;25 -->
<g id="edge53" class="edge">
<title>29&#45;&gt;25</title>
<path fill="none" stroke="#c0c0c0" stroke-width="2" d="M1626.6408,-163.2501C1764.7134,-159.8075 2316.1553,-144.2739 2509.7045,-109.9155"/>
<polygon fill="#c0c0c0" stroke="#c0c0c0" stroke-width="2" points="2510.5517,-113.3181 2519.7457,-108.0531 2509.275,-106.4355 2510.5517,-113.3181"/>
</g>
<!-- 29&#45;&gt;26 -->
<g id="edge54" class="edge">
<title>29&#45;&gt;26</title>
<path fill="none" stroke="#c0c0c0" stroke-width="2" d="M1626.4518,-163.4908C1774.7732,-160.9166 2406.2619,-148.002 2623.7117,-109.9083"/>
<polygon fill="#c0c0c0" stroke="#c0c0c0" stroke-width="2" points="2624.5413,-113.3148 2633.7499,-108.0753 2623.2838,-106.4287 2624.5413,-113.3148"/>
</g>
<!-- 29&#45;&gt;27 -->
<g id="edge55" class="edge">
<title>29&#45;&gt;27</title>
<path fill="none" stroke="#c0c0c0" stroke-width="2" d="M1626.4008,-163.6806C1784.5908,-161.8965 2496.2536,-151.7536 2737.6456,-109.9156"/>
<polygon fill="#c0c0c0" stroke="#c0c0c0" stroke-width="2" points="2738.533,-113.3121 2747.7532,-108.0931 2737.2908,-106.4232 2738.533,-113.3121"/>
</g>
<!-- 29&#45;&gt;28 -->
<g id="edge56" class="edge">
<title>29&#45;&gt;28</title>
<path fill="none" stroke="#c0c0c0" stroke-width="2" d="M1626.3936,-163.8357C1794.0843,-162.7805 2586.6545,-155.5219 2851.7922,-109.8871"/>
<polygon fill="#c0c0c0" stroke="#c0c0c0" stroke-width="2" points="2852.5271,-113.3113 2861.756,-108.1076 2851.2963,-106.4204 2852.5271,-113.3113"/>
</g>
<!-- 30 -->
<g id="node31" class="node">
<title>30</title>
<path fill="none" stroke="#59d856" stroke-width="2" stroke-dasharray="5,2" d="M2804.1549,-614C2804.1549,-614 2711.8939,-614 2711.8939,-614 2705.8939,-614 2699.8939,-608 2699.8939,-602 2699.8939,-602 2699.8939,-590 2699.8939,-590 2699.8939,-584 2705.8939,-578 2711.8939,-578 2711.8939,-578 2804.1549,-578 2804.1549,-578 2810.1549,-578 2816.1549,-584 2816.1549,-590 2816.1549,-590 2816.1549,-602 2816.1549,-602 2816.1549,-608 2810.1549,-614 2804.1549,-614"/>
<text text-anchor="middle" x="2758.0244" y="-593" font-family="sans" font-size="10.00" fill="#000000">country_data_cleaning</text>
</g>
<!-- 30&#45;&gt;21 -->
<g id="edge49" class="edge">
<title>30&#45;&gt;21</title>
<path fill="none" stroke="#c0c0c0" stroke-width="2" d="M2758.0244,-577.8314C2758.0244,-570.131 2758.0244,-560.9743 2758.0244,-552.4166"/>
<polygon fill="#c0c0c0" stroke="#c0c0c0" stroke-width="2" points="2761.5245,-552.4132 2758.0244,-542.4133 2754.5245,-552.4133 2761.5245,-552.4132"/>
</g>
<!-- 31 -->
<g id="node32" class="node">
<title>31</title>
<path fill="none" stroke="#d6d856" stroke-width="2" stroke-dasharray="5,2" d="M2337.7533,-254C2337.7533,-254 2264.2955,-254 2264.2955,-254 2258.2955,-254 2252.2955,-248 2252.2955,-242 2252.2955,-242 2252.2955,-230 2252.2955,-230 2252.2955,-224 2258.2955,-218 2264.2955,-218 2264.2955,-218 2337.7533,-218 2337.7533,-218 2343.7533,-218 2349.7533,-224 2349.7533,-230 2349.7533,-230 2349.7533,-242 2349.7533,-242 2349.7533,-248 2343.7533,-254 2337.7533,-254"/>
<text text-anchor="middle" x="2301.0244" y="-233" font-family="sans" font-size="10.00" fill="#000000">prepare_reg_table</text>
</g>
<!-- 31&#45;&gt;29 -->
<g id="edge57" class="edge">
<title>31&#45;&gt;29</title>
<path fill="none" stroke="#c0c0c0" stroke-width="2" d="M2252.2196,-231.0227C2120.4439,-217.5839 1759.1235,-180.7353 1636.4258,-168.2222"/>
<polygon fill="#c0c0c0" stroke="#c0c0c0" stroke-width="2" points="1636.6207,-164.7241 1626.3172,-167.1913 1635.9105,-171.6879 1636.6207,-164.7241"/>
</g>
<!-- 32&#45;&gt;31 -->
<g id="edge58" class="edge">
<title>32&#45;&gt;31</title>
<path fill="none" stroke="#c0c0c0" stroke-width="2" d="M2547.9383,-294.2879C2493.9184,-281.5356 2413.8405,-262.632 2359.6484,-249.8391"/>
<polygon fill="#c0c0c0" stroke="#c0c0c0" stroke-width="2" points="2360.3796,-246.4156 2349.8429,-247.5244 2358.7713,-253.2283 2360.3796,-246.4156"/>
</g>
<!-- 33 -->
<g id="node34" class="node">
<title>33</title>
<path fill="none" stroke="#afd856" stroke-width="2" stroke-dasharray="5,2" d="M2677.7824,-398C2677.7824,-398 2534.2664,-398 2534.2664,-398 2528.2664,-398 2522.2664,-392 2522.2664,-386 2522.2664,-386 2522.2664,-374 2522.2664,-374 2522.2664,-368 2528.2664,-362 2534.2664,-362 2534.2664,-362 2677.7824,-362 2677.7824,-362 2683.7824,-362 2689.7824,-368 2689.7824,-374 2689.7824,-374 2689.7824,-386 2689.7824,-386 2689.7824,-392 2683.7824,-398 2677.7824,-398"/>
<text text-anchor="middle" x="2606.0244" y="-377" font-family="sans" font-size="10.00" fill="#000000">cal_mesh_female_frac_per_paper</text>
</g>
<!-- 33&#45;&gt;32 -->
<g id="edge60" class="edge">
<title>33&#45;&gt;32</title>
<path fill="none" stroke="#c0c0c0" stroke-width="2" d="M2606.0244,-361.8314C2606.0244,-354.131 2606.0244,-344.9743 2606.0244,-336.4166"/>
<polygon fill="#c0c0c0" stroke="#c0c0c0" stroke-width="2" points="2609.5245,-336.4132 2606.0244,-326.4133 2602.5245,-336.4133 2609.5245,-336.4132"/>
</g>
<!-- 34 -->
<g id="node35" class="node">
<title>34</title>
<path fill="none" stroke="#56a9d8" stroke-width="2" stroke-dasharray="5,2" d="M2629.5083,-542C2629.5083,-542 2572.5405,-542 2572.5405,-542 2566.5405,-542 2560.5405,-536 2560.5405,-530 2560.5405,-530 2560.5405,-518 2560.5405,-518 2560.5405,-512 2566.5405,-506 2572.5405,-506 2572.5405,-506 2629.5083,-506 2629.5083,-506 2635.5083,-506 2641.5083,-512 2641.5083,-518 2641.5083,-518 2641.5083,-530 2641.5083,-530 2641.5083,-536 2635.5083,-542 2629.5083,-542"/>
<text text-anchor="middle" x="2601.0244" y="-521" font-family="sans" font-size="10.00" fill="#000000">disease_mesh</text>
</g>
<!-- 34&#45;&gt;33 -->
<g id="edge61" class="edge">
<title>34&#45;&gt;33</title>
<path fill="none" stroke="#c0c0c0" stroke-width="2" d="M2593.8699,-505.7099C2587.6707,-487.5124 2580.3718,-458.8006 2585.0244,-434 2586.6595,-425.2844 2589.6587,-416.1679 2592.8887,-407.9601"/>
<polygon fill="#c0c0c0" stroke="#c0c0c0" stroke-width="2" points="2596.2218,-409.0623 2596.8668,-398.4871 2589.7678,-406.352 2596.2218,-409.0623"/>
</g>
<!-- 34&#45;&gt;35 -->
<g id="edge64" class="edge">
<title>34&#45;&gt;35</title>
<path fill="none" stroke="#c0c0c0" stroke-width="2" d="M2616.4173,-505.8314C2623.5148,-497.454 2632.0724,-487.3531 2639.8484,-478.1749"/>
<polygon fill="#c0c0c0" stroke="#c0c0c0" stroke-width="2" points="2642.6305,-480.3056 2646.4243,-470.4133 2637.2896,-475.7807 2642.6305,-480.3056"/>
</g>
<!-- 35&#45;&gt;33 -->
<g id="edge62" class="edge">
<title>35&#45;&gt;33</title>
<path fill="none" stroke="#c0c0c0" stroke-width="2" d="M2647.8932,-433.8314C2641.4433,-425.5386 2633.6799,-415.557 2626.5992,-406.4533"/>
<polygon fill="#c0c0c0" stroke="#c0c0c0" stroke-width="2" points="2629.248,-404.158 2620.3458,-398.4133 2623.7225,-408.4556 2629.248,-404.158"/>
</g>
<!-- 36 -->
<g id="node37" class="node">
<title>36</title>
<path fill="none" stroke="#56d8a9" stroke-width="2" stroke-dasharray="5,2" d="M2633.3517,-614C2633.3517,-614 2568.6971,-614 2568.6971,-614 2562.6971,-614 2556.6971,-608 2556.6971,-602 2556.6971,-602 2556.6971,-590 2556.6971,-590 2556.6971,-584 2562.6971,-578 2568.6971,-578 2568.6971,-578 2633.3517,-578 2633.3517,-578 2639.3517,-578 2645.3517,-584 2645.3517,-590 2645.3517,-590 2645.3517,-602 2645.3517,-602 2645.3517,-608 2639.3517,-614 2633.3517,-614"/>
<text text-anchor="middle" x="2601.0244" y="-593" font-family="sans" font-size="10.00" fill="#000000">download_mesh</text>
</g>
<!-- 36&#45;&gt;34 -->
<g id="edge63" class="edge">
<title>36&#45;&gt;34</title>
<path fill="none" stroke="#c0c0c0" stroke-width="2" d="M2601.0244,-577.8314C2601.0244,-570.131 2601.0244,-560.9743 2601.0244,-552.4166"/>
<polygon fill="#c0c0c0" stroke="#c0c0c0" stroke-width="2" points="2604.5245,-552.4132 2601.0244,-542.4133 2597.5245,-552.4133 2604.5245,-552.4132"/>
</g>
</g>
</svg>
